<svg xmlns="http://www.w3.org/2000/svg" version="1.1" xmlns:xlink="http://www.w3.org/1999/xlink" xmlns:svgjs="http://svgjs.dev/svgjs" width="2000" height="732" viewBox="0 0 2000 732"><g transform="matrix(1,0,0,1,-1.2121212121212466,-0.948889162561386)"><svg viewBox="0 0 396 145" data-background-color="#000000" preserveAspectRatio="xMidYMid meet" height="732" width="2000" xmlns="http://www.w3.org/2000/svg" xmlns:xlink="http://www.w3.org/1999/xlink"><g id="tight-bounds" transform="matrix(1,0,0,1,0.2400000000000091,0.18796301717404162)"><svg viewBox="0 0 395.52 144.62407396565192" height="144.62407396565192" width="395.52"><g><svg viewBox="0 0 549.6976943055902 200.99999999999997" height="144.62407396565192" width="395.52"><g></g><g transform="matrix(1,0,0,1,242.554837162733,0.4999999999999858)"><svg viewBox="0 0 307.1428571428572 200" height="200" width="307.1428571428572"><g id="textblocktransform"><svg viewBox="0 0 307.1428571428572 200" height="200" width="307.1428571428572" id="textblock"><g><svg viewBox="0 0 307.1428571428572 200" height="200" width="307.1428571428572"><g transform="matrix(1,0,0,1,0,0)"><svg width="307.1428571428572" viewBox="0.8500000000000023 -36 148.35 93.6" height="200" data-palette-color="url(#5598468a-f92c-49e1-b5aa-dd1e995b942e)"><svg></svg><svg></svg><g class="wordmark-text-0" data-fill-palette-color="primary" id="text-0"></g></svg></g></svg></g></svg></g></svg></g><g transform="matrix(1,0,0,1,0,5.592857142857127)"><svg viewBox="0 0 189.81428571428577 189.81428571428572" height="189.81428571428572" width="189.81428571428577"><g><svg xmlns="http://www.w3.org/2000/svg" xmlns:xlink="http://www.w3.org/1999/xlink" version="1.1" x="0" y="0" viewBox="25.700000000000003 25.7 48.60000000000001 48.599999999999994" enable-background="new 0 0 100 100" xml:space="preserve" height="189.81428571428572" width="189.81428571428577" class="icon-icon-0" data-fill-palette-color="accent" id="icon-0"></svg></g></svg></g></svg></g><defs></defs><mask id="8f7e8d9b-0b4a-43dd-a0ae-d016fe282006"><g id="SvgjsG1304"><svg viewBox="0 0 395.52 144.62407396565192" height="144.62407396565192" width="395.52"><g><svg viewBox="0 0 549.6976943055902 200.99999999999997" height="144.62407396565192" width="395.52"><g><rect width="8.45797256645963" height="200.99999999999997" x="211.95557515527958" y="0" fill="white" opacity="1" stroke-width="0" stroke="transparent" fill-opacity="1" class="rect-qz-0" rx="1%" id="SvgjsRect1303" data-palette-color="url(#5598468a-f92c-49e1-b5aa-dd1e995b942e)"></rect></g><g transform="matrix(1,0,0,1,242.554837162733,0.4999999999999858)"><svg viewBox="0 0 307.1428571428572 200" height="200" width="307.1428571428572"><g id="SvgjsG1302"><svg viewBox="0 0 307.1428571428572 200" height="200" width="307.1428571428572" id="SvgjsSvg1301"><g><svg viewBox="0 0 307.1428571428572 200" height="200" width="307.1428571428572"><g transform="matrix(1,0,0,1,0,0)"><svg width="307.1428571428572" viewBox="0.8500000000000023 -36 148.35 93.6" height="200" data-palette-color="url(#5598468a-f92c-49e1-b5aa-dd1e995b942e)"><svg></svg><svg></svg><g class="wordmark-text-0" data-fill-palette-color="primary" id="SvgjsG1300"><path d="M7.4-34.3h22.5l-1.3 4.45h-16.95l-1.4 10.1h15.35l-0.65 4.45h-15.35l-1.5 10.85h17.25v4.45h-22.8zM44.2-26.05c3.867 0 6.517 1.517 7.95 4.55v0l2.25-4.05h1.8l-3.35 23.85c-0.433 3.3-1.683 5.96-3.75 7.98-2.067 2.013-5.017 3.02-8.85 3.02v0c-3.133 0-5.517-0.783-7.15-2.35-1.633-1.567-2.45-3.567-2.45-6v0h4.65c0 1.4 0.483 2.517 1.45 3.35 0.967 0.833 2.3 1.25 4 1.25v0c1.967 0 3.6-0.6 4.9-1.8 1.3-1.2 2.083-2.7 2.35-4.5v0l0.55-4c-0.933 1.133-2.1 2.043-3.5 2.73-1.4 0.68-2.967 1.02-4.7 1.02v0c-2.533 0-4.59-0.817-6.17-2.45-1.587-1.633-2.38-3.95-2.38-6.95v0c0-2.767 0.467-5.343 1.4-7.73 0.933-2.38 2.333-4.297 4.2-5.75 1.867-1.447 4.133-2.17 6.8-2.17zM44.6-22.3c-2.3 0-4.207 0.883-5.72 2.65-1.52 1.767-2.28 4.7-2.28 8.8v0c0 4.067 1.833 6.1 5.5 6.1v0c1.833 0 3.35-0.567 4.55-1.7 1.2-1.133 2.067-2.577 2.6-4.33 0.533-1.747 0.8-3.587 0.8-5.52v0c0-2.167-0.467-3.71-1.4-4.63-0.933-0.913-2.283-1.37-4.05-1.37zM86.75-36l-1.05 7.2c-0.267 1.867-0.89 6.2-1.87 13-0.987 6.8-1.48 10.533-1.48 11.2v0c0 0.433 0.117 0.767 0.35 1 0.233 0.233 0.517 0.35 0.85 0.35v0c0.367 0 0.777-0.077 1.23-0.23 0.447-0.147 0.82-0.303 1.12-0.47v0l-0.45 3.45c-0.433 0.267-0.983 0.5-1.65 0.7-0.667 0.2-1.4 0.3-2.2 0.3v0c-2.533 0-3.8-1.25-3.8-3.75v0c-2.3 2.5-5.05 3.75-8.25 3.75v0c-2.633 0-4.74-0.84-6.32-2.52-1.587-1.687-2.38-4.18-2.38-7.48v0c0-3.467 0.543-6.45 1.63-8.95 1.08-2.5 2.537-4.393 4.37-5.68 1.833-1.28 3.867-1.92 6.1-1.92v0c1.667 0 3.117 0.34 4.35 1.02 1.233 0.687 2.167 1.597 2.8 2.73v0l1.95-13.7zM73.6-22.3c-2.933 0-5.017 1.29-6.25 3.87-1.233 2.587-1.85 5.513-1.85 8.78v0c0 2.3 0.467 3.94 1.4 4.92 0.933 0.987 2.283 1.48 4.05 1.48v0c2.667 0 4.683-1.183 6.05-3.55 1.367-2.367 2.05-5.4 2.05-9.1v0c0-2.267-0.473-3.9-1.42-4.9-0.953-1-2.297-1.5-4.03-1.5zM105.4-26.05c2.833 0 5.09 0.783 6.77 2.35 1.687 1.567 2.53 3.733 2.53 6.5v0 0.55c0 0.7-0.217 2.35-0.65 4.95v0h-17.85c-0.067 0.733-0.1 1.267-0.1 1.6v0c0 2.1 0.483 3.767 1.45 5 0.967 1.233 2.5 1.85 4.6 1.85v0c2.433 0 4.167-0.667 5.2-2 1.033-1.333 1.683-2.75 1.95-4.25v0h4.45c-0.433 3.133-1.71 5.583-3.83 7.35-2.113 1.767-4.87 2.65-8.27 2.65v0h-0.2c-3.067 0-5.507-0.883-7.32-2.65-1.82-1.767-2.73-4.267-2.73-7.5v0c0-2.967 0.507-5.7 1.52-8.2 1.02-2.5 2.553-4.493 4.6-5.98 2.053-1.48 4.563-2.22 7.53-2.22v0zM104.65-22.3c-1.933 0-3.577 0.583-4.93 1.75-1.347 1.167-2.303 2.9-2.87 5.2v0h13.1c0.1-0.667 0.15-1.267 0.15-1.8v0c0-1.667-0.5-2.943-1.5-3.83-1-0.88-2.317-1.32-3.95-1.32z" fill="white" fill-rule="nonzero" stroke="none" stroke-width="1" stroke-linecap="butt" stroke-linejoin="miter" stroke-miterlimit="10" stroke-dasharray="" stroke-dashoffset="0" font-family="none" font-weight="none" font-size="none" text-anchor="none" style="mix-blend-mode: normal" opacity="1"></path><path transform="translate(0,48.3)" d="M17.85-26.05c2.6 0 4.7 0.84 6.3 2.52 1.6 1.687 2.4 4.197 2.4 7.53v0c0 2.567-0.407 5.117-1.22 7.65-0.82 2.533-2.137 4.643-3.95 6.33-1.82 1.68-4.13 2.52-6.93 2.52v0c-1.733 0-3.2-0.333-4.4-1-1.2-0.667-2.117-1.583-2.75-2.75v0l-1.75 12.3h-4.7l4.85-34.6h3.7v3.5c2.233-2.667 5.05-4 8.45-4zM16.45-22.3c-2.333 0-4.267 0.983-5.8 2.95-1.533 1.967-2.3 5.2-2.3 9.7v0c0 2.3 0.467 3.94 1.4 4.92 0.933 0.987 2.283 1.48 4.05 1.48v0c3 0 5.1-1.26 6.3-3.78 1.2-2.513 1.8-5.453 1.8-8.82v0c0-2.3-0.473-3.95-1.42-4.95-0.953-1-2.297-1.5-4.03-1.5zM41-36l-1.9 13.65c2.433-2.467 5.233-3.7 8.4-3.7v0c2.4 0 4.317 0.583 5.75 1.75 1.433 1.167 2.15 2.933 2.15 5.3v0c0 0.7-0.433 4.083-1.3 10.15v0l-1.25 8.85h-4.7l1.2-8.35c0.7-5.033 1.1-8.183 1.2-9.45v0c0-1.533-0.407-2.667-1.22-3.4-0.82-0.733-1.963-1.1-3.43-1.1v0c-1.167 0-2.317 0.317-3.45 0.95-1.133 0.633-2.1 1.49-2.9 2.57-0.8 1.087-1.283 2.28-1.45 3.58v0l-2.15 15.2h-4.7l5.05-36zM85.25-25.55l-13 24.55c-1.733 3.267-3.44 5.8-5.12 7.6-1.687 1.8-3.597 2.7-5.73 2.7v0c-1.367 0-2.55-0.233-3.55-0.7v0l0.5-3.85c0.367 0.2 0.817 0.367 1.35 0.5 0.533 0.133 1.05 0.2 1.55 0.2v0c0.867 0 1.833-0.4 2.9-1.2 1.067-0.8 2.1-2.3 3.1-4.5v0l-6.35-25.3h4.95l4.7 18.85h0.2l9.9-18.85zM99.85-26.05c2.7 0 4.843 0.583 6.43 1.75 1.58 1.167 2.37 2.633 2.37 4.4v0c0 0.733-0.067 1.3-0.2 1.7v0h-4.65c0-0.167 0.017-0.333 0.05-0.5 0.033-0.167 0.05-0.317 0.05-0.45v0c0-0.933-0.407-1.693-1.22-2.28-0.82-0.58-2.147-0.87-3.98-0.87v0c-2.267 0-3.85 0.39-4.75 1.17-0.9 0.787-1.35 1.647-1.35 2.58v0c0 0.967 0.483 1.667 1.45 2.1 0.967 0.433 2.5 0.867 4.6 1.3v0c1.933 0.4 3.5 0.8 4.7 1.2 1.2 0.4 2.227 1.04 3.08 1.92 0.847 0.887 1.27 2.097 1.27 3.63v0c0 3.133-1.107 5.4-3.32 6.8-2.22 1.4-5.147 2.1-8.78 2.1v0h-0.75c-3.1 0-5.44-0.627-7.02-1.88-1.587-1.247-2.38-2.803-2.38-4.67v0c0-0.567 0.043-1.017 0.13-1.35 0.08-0.333 0.12-0.533 0.12-0.6v0h4.65l-0.1 0.8v0.35c0 1.2 0.55 2.1 1.65 2.7 1.1 0.6 2.55 0.9 4.35 0.9v0c1.9 0 3.477-0.36 4.73-1.08 1.247-0.713 1.87-1.72 1.87-3.02v0c0-1.133-0.517-1.943-1.55-2.43-1.033-0.48-2.633-0.937-4.8-1.37v0c-1.9-0.4-3.423-0.793-4.57-1.18-1.153-0.38-2.137-1.003-2.95-1.87-0.82-0.867-1.23-2.05-1.23-3.55v0c0-2.6 1.017-4.633 3.05-6.1 2.033-1.467 4.9-2.2 8.6-2.2v0zM118.15-36h4.9l-0.6 4.35h-4.9zM116.8-25.55h4.7l-3.6 25.55h-4.7zM139.95-26.05c2.8 0 5.043 0.783 6.73 2.35 1.68 1.567 2.52 3.7 2.52 6.4v0c0 0.533-0.05 1.133-0.15 1.8v0h-4.65c0.067-0.6 0.1-1.05 0.1-1.35v0c0-1.633-0.45-2.95-1.35-3.95-0.9-1-2.233-1.5-4-1.5v0c-3 0-5.133 1.257-6.4 3.77-1.267 2.52-1.9 5.497-1.9 8.93v0c0 2.133 0.51 3.723 1.53 4.77 1.013 1.053 2.453 1.58 4.32 1.58v0c2.033 0 3.65-0.61 4.85-1.83 1.2-1.213 1.95-2.853 2.25-4.92v0h4.5c-0.467 3.367-1.75 5.957-3.85 7.77-2.1 1.82-4.833 2.73-8.2 2.73v0h-0.4c-2.933 0-5.273-0.883-7.02-2.65-1.753-1.767-2.63-4.233-2.63-7.4v0c0-3.033 0.483-5.8 1.45-8.3 0.967-2.5 2.45-4.493 4.45-5.98 2-1.48 4.483-2.22 7.45-2.22v0z" fill="white" fill-rule="nonzero" stroke="none" stroke-width="1" stroke-linecap="butt" stroke-linejoin="miter" stroke-miterlimit="10" stroke-dasharray="" stroke-dashoffset="0" font-family="none" font-weight="none" font-size="none" text-anchor="none" style="mix-blend-mode: normal" opacity="1"></path></g></svg></g></svg></g></svg></g></svg></g><g transform="matrix(1,0,0,1,0,5.592857142857127)"><svg viewBox="0 0 189.81428571428577 189.81428571428572" height="189.81428571428572" width="189.81428571428577"><g><svg xmlns="http://www.w3.org/2000/svg" xmlns:xlink="http://www.w3.org/1999/xlink" version="1.1" x="0" y="0" viewBox="25.700000000000003 25.7 48.60000000000001 48.599999999999994" enable-background="new 0 0 100 100" xml:space="preserve" height="189.81428571428572" width="189.81428571428577" class="icon-icon-0" data-fill-palette-color="accent" id="SvgjsSvg1299"><g fill="black"><g fill="black"><path fill="black" d="M69.7 73.9c-0.3 0-0.5-0.1-0.7-0.3l-3.9-3.9c-0.4-0.4-0.4-1 0-1.4s1-0.4 1.4 0l3.2 3.2 1.8-1.8-3.2-3.2c-0.4-0.4-0.4-1 0-1.4s1-0.4 1.4 0l3.9 3.9c0.4 0.4 0.4 1 0 1.4l-3.2 3.2C70.2 73.8 69.9 73.9 69.7 73.9z"></path></g><g fill="black"><path fill="black" d="M57.7 61.9c-0.3 0-0.5-0.1-0.7-0.3L38.4 43c-0.4-0.4-0.4-1 0-1.4s1-0.4 1.4 0l18.6 18.6c0.4 0.4 0.4 1 0 1.4C58.2 61.8 58 61.9 57.7 61.9z"></path></g><g fill="black"><path fill="black" d="M60.9 58.7c-0.3 0-0.5-0.1-0.7-0.3L41.6 39.8c-0.4-0.4-0.4-1 0-1.4s1-0.4 1.4 0L61.6 57c0.4 0.4 0.4 1 0 1.4C61.4 58.6 61.2 58.7 60.9 58.7z"></path></g><g fill="black"><path fill="black" d="M31 35.2c-0.3 0-0.5-0.1-0.7-0.3l-3.5-3.5c-0.2-0.2-0.3-0.4-0.3-0.7s0.1-0.5 0.3-0.7l3.2-3.2c0.4-0.4 1-0.4 1.4 0l3.5 3.5c0.4 0.4 0.4 1 0 1.4s-1 0.4-1.4 0l-2.8-2.8-1.8 1.8 2.8 2.8c0.4 0.4 0.4 1 0 1.4C31.5 35.1 31.2 35.2 31 35.2z"></path></g><g fill="black"><g fill="black"><path fill="black" d="M30.8 43.5L30.8 43.5c-0.3 0-0.5-0.1-0.7-0.3L26 39.1c-0.4-0.4-0.4-1 0-1.4L37.7 26c0.2-0.2 0.4-0.3 0.7-0.3l0 0c0.3 0 0.5 0.1 0.7 0.3l4.1 4.1c0.4 0.4 0.4 1 0 1.4L31.5 43.2C31.3 43.4 31 43.5 30.8 43.5zM28.1 38.4l2.6 2.6 10.3-10.3-2.6-2.6L28.1 38.4z"></path></g><g fill="black"><path fill="black" d="M32.3 50.1c-0.3 0-0.5-0.1-0.7-0.3l-4.1-4.1c-0.2-0.2-0.3-0.4-0.3-0.7s0.1-0.5 0.3-0.7l16.7-16.7c0.4-0.4 1-0.4 1.4 0l4.1 4.1c0.4 0.4 0.4 1 0 1.4L33 49.8C32.8 50 32.6 50.1 32.3 50.1zM29.7 45l2.6 2.6 15.3-15.3L45 29.7 29.7 45z"></path></g></g><g fill="black"><g fill="black"><path fill="black" d="M61.6 74.3L61.6 74.3c-0.3 0-0.5-0.1-0.7-0.3l-4.1-4.1c-0.4-0.4-0.4-1 0-1.4l11.7-11.7c0.2-0.2 0.4-0.3 0.7-0.3l0 0c0.3 0 0.5 0.1 0.7 0.3l4.1 4.1c0.4 0.4 0.4 1 0 1.4L62.3 74C62.1 74.2 61.8 74.3 61.6 74.3zM58.9 69.2l2.6 2.6 10.3-10.3-2.6-2.6L58.9 69.2z"></path></g><g fill="black"><path fill="black" d="M55 72.7c-0.3 0-0.5-0.1-0.7-0.3l-4.1-4.1c-0.4-0.4-0.4-1 0-1.4L67 50.2c0.2-0.2 0.4-0.3 0.7-0.3l0 0c0.3 0 0.5 0.1 0.7 0.3l4.1 4.1c0.4 0.4 0.4 1 0 1.4L55.7 72.4C55.5 72.6 55.3 72.7 55 72.7zM52.4 67.7l2.6 2.6L70.3 55l-2.6-2.6L52.4 67.7z"></path></g></g></g></svg></g></svg></g></svg></g><defs><mask></mask></defs></svg><rect width="395.52" height="144.62407396565192" fill="black" stroke="none" visibility="hidden"></rect></g></mask><linearGradient x1="0" x2="1" y1="0.578" y2="0.595" id="5598468a-f92c-49e1-b5aa-dd1e995b942e"><stop stop-color="#6ee2f5" offset="0"></stop><stop stop-color="#6454f0" offset="1"></stop></linearGradient><rect width="395.52" height="144.62407396565192" fill="url(#5598468a-f92c-49e1-b5aa-dd1e995b942e)" mask="url(#8f7e8d9b-0b4a-43dd-a0ae-d016fe282006)" data-fill-palette-color="primary"></rect><mask id="c7236c8d-a2f0-4137-a522-70db01b34ac9"><g id="SvgjsG1327"><svg viewBox="0 0 395.52 144.62407396565192" height="144.62407396565192" width="395.52"><g><svg viewBox="0 0 549.6976943055902 200.99999999999997" height="144.62407396565192" width="395.52"><g></g><g transform="matrix(1,0,0,1,242.554837162733,0.4999999999999858)"><svg viewBox="0 0 307.1428571428572 200" height="200" width="307.1428571428572"><g id="SvgjsG1326"><svg viewBox="0 0 307.1428571428572 200" height="200" width="307.1428571428572" id="SvgjsSvg1325"><g><svg viewBox="0 0 307.1428571428572 200" height="200" width="307.1428571428572"><g transform="matrix(1,0,0,1,0,0)"><svg width="307.1428571428572" viewBox="0.8500000000000023 -36 148.35 93.6" height="200" data-palette-color="url(#5598468a-f92c-49e1-b5aa-dd1e995b942e)"><svg></svg><svg></svg><g class="wordmark-text-0" data-fill-palette-color="primary" id="SvgjsG1324"></g></svg></g></svg></g></svg></g></svg></g><g transform="matrix(1,0,0,1,0,5.592857142857127)"><svg viewBox="0 0 189.81428571428577 189.81428571428572" height="189.81428571428572" width="189.81428571428577"><g><svg xmlns="http://www.w3.org/2000/svg" xmlns:xlink="http://www.w3.org/1999/xlink" version="1.1" x="0" y="0" viewBox="25.700000000000003 25.7 48.60000000000001 48.599999999999994" enable-background="new 0 0 100 100" xml:space="preserve" height="189.81428571428572" width="189.81428571428577" class="icon-icon-0" data-fill-palette-color="accent" id="SvgjsSvg1323"><g fill="white"><g fill="white"><path fill="white" d="M69.7 73.9c-0.3 0-0.5-0.1-0.7-0.3l-3.9-3.9c-0.4-0.4-0.4-1 0-1.4s1-0.4 1.4 0l3.2 3.2 1.8-1.8-3.2-3.2c-0.4-0.4-0.4-1 0-1.4s1-0.4 1.4 0l3.9 3.9c0.4 0.4 0.4 1 0 1.4l-3.2 3.2C70.2 73.8 69.9 73.9 69.7 73.9z"></path></g><g fill="white"><path fill="white" d="M57.7 61.9c-0.3 0-0.5-0.1-0.7-0.3L38.4 43c-0.4-0.4-0.4-1 0-1.4s1-0.4 1.4 0l18.6 18.6c0.4 0.4 0.4 1 0 1.4C58.2 61.8 58 61.9 57.7 61.9z"></path></g><g fill="white"><path fill="white" d="M60.9 58.7c-0.3 0-0.5-0.1-0.7-0.3L41.6 39.8c-0.4-0.4-0.4-1 0-1.4s1-0.4 1.4 0L61.6 57c0.4 0.4 0.4 1 0 1.4C61.4 58.6 61.2 58.7 60.9 58.7z"></path></g><g fill="white"><path fill="white" d="M31 35.2c-0.3 0-0.5-0.1-0.7-0.3l-3.5-3.5c-0.2-0.2-0.3-0.4-0.3-0.7s0.1-0.5 0.3-0.7l3.2-3.2c0.4-0.4 1-0.4 1.4 0l3.5 3.5c0.4 0.4 0.4 1 0 1.4s-1 0.4-1.4 0l-2.8-2.8-1.8 1.8 2.8 2.8c0.4 0.4 0.4 1 0 1.4C31.5 35.1 31.2 35.2 31 35.2z"></path></g><g fill="white"><g fill="white"><path fill="white" d="M30.8 43.5L30.8 43.5c-0.3 0-0.5-0.1-0.7-0.3L26 39.1c-0.4-0.4-0.4-1 0-1.4L37.7 26c0.2-0.2 0.4-0.3 0.7-0.3l0 0c0.3 0 0.5 0.1 0.7 0.3l4.1 4.1c0.4 0.4 0.4 1 0 1.4L31.5 43.2C31.3 43.4 31 43.5 30.8 43.5zM28.1 38.4l2.6 2.6 10.3-10.3-2.6-2.6L28.1 38.4z"></path></g><g fill="white"><path fill="white" d="M32.3 50.1c-0.3 0-0.5-0.1-0.7-0.3l-4.1-4.1c-0.2-0.2-0.3-0.4-0.3-0.7s0.1-0.5 0.3-0.7l16.7-16.7c0.4-0.4 1-0.4 1.4 0l4.1 4.1c0.4 0.4 0.4 1 0 1.4L33 49.8C32.8 50 32.6 50.1 32.3 50.1zM29.7 45l2.6 2.6 15.3-15.3L45 29.7 29.7 45z"></path></g></g><g fill="white"><g fill="white"><path fill="white" d="M61.6 74.3L61.6 74.3c-0.3 0-0.5-0.1-0.7-0.3l-4.1-4.1c-0.4-0.4-0.4-1 0-1.4l11.7-11.7c0.2-0.2 0.4-0.3 0.7-0.3l0 0c0.3 0 0.5 0.1 0.7 0.3l4.1 4.1c0.4 0.4 0.4 1 0 1.4L62.3 74C62.1 74.2 61.8 74.3 61.6 74.3zM58.9 69.2l2.6 2.6 10.3-10.3-2.6-2.6L58.9 69.2z"></path></g><g fill="white"><path fill="white" d="M55 72.7c-0.3 0-0.5-0.1-0.7-0.3l-4.1-4.1c-0.4-0.4-0.4-1 0-1.4L67 50.2c0.2-0.2 0.4-0.3 0.7-0.3l0 0c0.3 0 0.5 0.1 0.7 0.3l4.1 4.1c0.4 0.4 0.4 1 0 1.4L55.7 72.4C55.5 72.6 55.3 72.7 55 72.7zM52.4 67.7l2.6 2.6L70.3 55l-2.6-2.6L52.4 67.7z"></path></g></g></g></svg></g></svg></g></svg></g><defs><mask></mask></defs><mask><g id="SvgjsG1322"><svg viewBox="0 0 395.52 144.62407396565192" height="144.62407396565192" width="395.52"><g><svg viewBox="0 0 549.6976943055902 200.99999999999997" height="144.62407396565192" width="395.52"><g><rect width="8.45797256645963" height="200.99999999999997" x="211.95557515527958" y="0" fill="black" opacity="1" stroke-width="0" stroke="transparent" fill-opacity="1" class="rect-qz-0" rx="1%" id="SvgjsRect1321" data-palette-color="url(#5598468a-f92c-49e1-b5aa-dd1e995b942e)"></rect></g><g transform="matrix(1,0,0,1,242.554837162733,0.4999999999999858)"><svg viewBox="0 0 307.1428571428572 200" height="200" width="307.1428571428572"><g id="SvgjsG1320"><svg viewBox="0 0 307.1428571428572 200" height="200" width="307.1428571428572" id="SvgjsSvg1319"><g><svg viewBox="0 0 307.1428571428572 200" height="200" width="307.1428571428572"><g transform="matrix(1,0,0,1,0,0)"><svg width="307.1428571428572" viewBox="0.8500000000000023 -36 148.35 93.6" height="200" data-palette-color="url(#5598468a-f92c-49e1-b5aa-dd1e995b942e)"><svg></svg><svg></svg><g class="wordmark-text-0" data-fill-palette-color="primary" id="SvgjsG1318"><path d="M7.4-34.3h22.5l-1.3 4.45h-16.95l-1.4 10.1h15.35l-0.65 4.45h-15.35l-1.5 10.85h17.25v4.45h-22.8zM44.2-26.05c3.867 0 6.517 1.517 7.95 4.55v0l2.25-4.05h1.8l-3.35 23.85c-0.433 3.3-1.683 5.96-3.75 7.98-2.067 2.013-5.017 3.02-8.85 3.02v0c-3.133 0-5.517-0.783-7.15-2.35-1.633-1.567-2.45-3.567-2.45-6v0h4.65c0 1.4 0.483 2.517 1.45 3.35 0.967 0.833 2.3 1.25 4 1.25v0c1.967 0 3.6-0.6 4.9-1.8 1.3-1.2 2.083-2.7 2.35-4.5v0l0.55-4c-0.933 1.133-2.1 2.043-3.5 2.73-1.4 0.68-2.967 1.02-4.7 1.02v0c-2.533 0-4.59-0.817-6.17-2.45-1.587-1.633-2.38-3.95-2.38-6.95v0c0-2.767 0.467-5.343 1.4-7.73 0.933-2.38 2.333-4.297 4.2-5.75 1.867-1.447 4.133-2.17 6.8-2.17zM44.6-22.3c-2.3 0-4.207 0.883-5.72 2.65-1.52 1.767-2.28 4.7-2.28 8.8v0c0 4.067 1.833 6.1 5.5 6.1v0c1.833 0 3.35-0.567 4.55-1.7 1.2-1.133 2.067-2.577 2.6-4.33 0.533-1.747 0.8-3.587 0.8-5.52v0c0-2.167-0.467-3.71-1.4-4.63-0.933-0.913-2.283-1.37-4.05-1.37zM86.75-36l-1.05 7.2c-0.267 1.867-0.89 6.2-1.87 13-0.987 6.8-1.48 10.533-1.48 11.2v0c0 0.433 0.117 0.767 0.35 1 0.233 0.233 0.517 0.35 0.85 0.35v0c0.367 0 0.777-0.077 1.23-0.23 0.447-0.147 0.82-0.303 1.12-0.47v0l-0.45 3.45c-0.433 0.267-0.983 0.5-1.65 0.7-0.667 0.2-1.4 0.3-2.2 0.3v0c-2.533 0-3.8-1.25-3.8-3.75v0c-2.3 2.5-5.05 3.75-8.25 3.75v0c-2.633 0-4.74-0.84-6.32-2.52-1.587-1.687-2.38-4.18-2.38-7.48v0c0-3.467 0.543-6.45 1.63-8.95 1.08-2.5 2.537-4.393 4.37-5.68 1.833-1.28 3.867-1.92 6.1-1.92v0c1.667 0 3.117 0.34 4.35 1.02 1.233 0.687 2.167 1.597 2.8 2.73v0l1.95-13.7zM73.6-22.3c-2.933 0-5.017 1.29-6.25 3.87-1.233 2.587-1.85 5.513-1.85 8.78v0c0 2.3 0.467 3.94 1.4 4.92 0.933 0.987 2.283 1.48 4.05 1.48v0c2.667 0 4.683-1.183 6.05-3.55 1.367-2.367 2.05-5.4 2.05-9.1v0c0-2.267-0.473-3.9-1.42-4.9-0.953-1-2.297-1.5-4.03-1.5zM105.4-26.05c2.833 0 5.09 0.783 6.77 2.35 1.687 1.567 2.53 3.733 2.53 6.5v0 0.55c0 0.7-0.217 2.35-0.65 4.95v0h-17.85c-0.067 0.733-0.1 1.267-0.1 1.6v0c0 2.1 0.483 3.767 1.45 5 0.967 1.233 2.5 1.85 4.6 1.85v0c2.433 0 4.167-0.667 5.2-2 1.033-1.333 1.683-2.75 1.95-4.25v0h4.45c-0.433 3.133-1.71 5.583-3.83 7.35-2.113 1.767-4.87 2.65-8.27 2.65v0h-0.2c-3.067 0-5.507-0.883-7.32-2.65-1.82-1.767-2.73-4.267-2.73-7.5v0c0-2.967 0.507-5.7 1.52-8.2 1.02-2.5 2.553-4.493 4.6-5.98 2.053-1.48 4.563-2.22 7.53-2.22v0zM104.65-22.3c-1.933 0-3.577 0.583-4.93 1.75-1.347 1.167-2.303 2.9-2.87 5.2v0h13.1c0.1-0.667 0.15-1.267 0.15-1.8v0c0-1.667-0.5-2.943-1.5-3.83-1-0.88-2.317-1.32-3.95-1.32z" fill="black" fill-rule="nonzero" stroke="none" stroke-width="1" stroke-linecap="butt" stroke-linejoin="miter" stroke-miterlimit="10" stroke-dasharray="" stroke-dashoffset="0" font-family="none" font-weight="none" font-size="none" text-anchor="none" style="mix-blend-mode: normal" opacity="1"></path><path transform="translate(0,48.3)" d="M17.85-26.05c2.6 0 4.7 0.84 6.3 2.52 1.6 1.687 2.4 4.197 2.4 7.53v0c0 2.567-0.407 5.117-1.22 7.65-0.82 2.533-2.137 4.643-3.95 6.33-1.82 1.68-4.13 2.52-6.93 2.52v0c-1.733 0-3.2-0.333-4.4-1-1.2-0.667-2.117-1.583-2.75-2.75v0l-1.75 12.3h-4.7l4.85-34.6h3.7v3.5c2.233-2.667 5.05-4 8.45-4zM16.45-22.3c-2.333 0-4.267 0.983-5.8 2.95-1.533 1.967-2.3 5.2-2.3 9.7v0c0 2.3 0.467 3.94 1.4 4.92 0.933 0.987 2.283 1.48 4.05 1.48v0c3 0 5.1-1.26 6.3-3.78 1.2-2.513 1.8-5.453 1.8-8.82v0c0-2.3-0.473-3.95-1.42-4.95-0.953-1-2.297-1.5-4.03-1.5zM41-36l-1.9 13.65c2.433-2.467 5.233-3.7 8.4-3.7v0c2.4 0 4.317 0.583 5.75 1.75 1.433 1.167 2.15 2.933 2.15 5.3v0c0 0.7-0.433 4.083-1.3 10.15v0l-1.25 8.85h-4.7l1.2-8.35c0.7-5.033 1.1-8.183 1.2-9.45v0c0-1.533-0.407-2.667-1.22-3.4-0.82-0.733-1.963-1.1-3.43-1.1v0c-1.167 0-2.317 0.317-3.45 0.95-1.133 0.633-2.1 1.49-2.9 2.57-0.8 1.087-1.283 2.28-1.45 3.58v0l-2.15 15.2h-4.7l5.05-36zM85.25-25.55l-13 24.55c-1.733 3.267-3.44 5.8-5.12 7.6-1.687 1.8-3.597 2.7-5.73 2.7v0c-1.367 0-2.55-0.233-3.55-0.7v0l0.5-3.85c0.367 0.2 0.817 0.367 1.35 0.5 0.533 0.133 1.05 0.2 1.55 0.2v0c0.867 0 1.833-0.4 2.9-1.2 1.067-0.8 2.1-2.3 3.1-4.5v0l-6.35-25.3h4.95l4.7 18.85h0.2l9.9-18.85zM99.85-26.05c2.7 0 4.843 0.583 6.43 1.75 1.58 1.167 2.37 2.633 2.37 4.4v0c0 0.733-0.067 1.3-0.2 1.7v0h-4.65c0-0.167 0.017-0.333 0.05-0.5 0.033-0.167 0.05-0.317 0.05-0.45v0c0-0.933-0.407-1.693-1.22-2.28-0.82-0.58-2.147-0.87-3.98-0.87v0c-2.267 0-3.85 0.39-4.75 1.17-0.9 0.787-1.35 1.647-1.35 2.58v0c0 0.967 0.483 1.667 1.45 2.1 0.967 0.433 2.5 0.867 4.6 1.3v0c1.933 0.4 3.5 0.8 4.7 1.2 1.2 0.4 2.227 1.04 3.08 1.92 0.847 0.887 1.27 2.097 1.27 3.63v0c0 3.133-1.107 5.4-3.32 6.8-2.22 1.4-5.147 2.1-8.78 2.1v0h-0.75c-3.1 0-5.44-0.627-7.02-1.88-1.587-1.247-2.38-2.803-2.38-4.67v0c0-0.567 0.043-1.017 0.13-1.35 0.08-0.333 0.12-0.533 0.12-0.6v0h4.65l-0.1 0.8v0.35c0 1.2 0.55 2.1 1.65 2.7 1.1 0.6 2.55 0.9 4.35 0.9v0c1.9 0 3.477-0.36 4.73-1.08 1.247-0.713 1.87-1.72 1.87-3.02v0c0-1.133-0.517-1.943-1.55-2.43-1.033-0.48-2.633-0.937-4.8-1.37v0c-1.9-0.4-3.423-0.793-4.57-1.18-1.153-0.38-2.137-1.003-2.95-1.87-0.82-0.867-1.23-2.05-1.23-3.55v0c0-2.6 1.017-4.633 3.05-6.1 2.033-1.467 4.9-2.2 8.6-2.2v0zM118.15-36h4.9l-0.6 4.35h-4.9zM116.8-25.55h4.7l-3.6 25.55h-4.7zM139.95-26.05c2.8 0 5.043 0.783 6.73 2.35 1.68 1.567 2.52 3.7 2.52 6.4v0c0 0.533-0.05 1.133-0.15 1.8v0h-4.65c0.067-0.6 0.1-1.05 0.1-1.35v0c0-1.633-0.45-2.95-1.35-3.95-0.9-1-2.233-1.5-4-1.5v0c-3 0-5.133 1.257-6.4 3.77-1.267 2.52-1.9 5.497-1.9 8.93v0c0 2.133 0.51 3.723 1.53 4.77 1.013 1.053 2.453 1.58 4.32 1.58v0c2.033 0 3.65-0.61 4.85-1.83 1.2-1.213 1.95-2.853 2.25-4.92v0h4.5c-0.467 3.367-1.75 5.957-3.85 7.77-2.1 1.82-4.833 2.73-8.2 2.73v0h-0.4c-2.933 0-5.273-0.883-7.02-2.65-1.753-1.767-2.63-4.233-2.63-7.4v0c0-3.033 0.483-5.8 1.45-8.3 0.967-2.5 2.45-4.493 4.45-5.98 2-1.48 4.483-2.22 7.45-2.22v0z" fill="black" fill-rule="nonzero" stroke="none" stroke-width="1" stroke-linecap="butt" stroke-linejoin="miter" stroke-miterlimit="10" stroke-dasharray="" stroke-dashoffset="0" font-family="none" font-weight="none" font-size="none" text-anchor="none" style="mix-blend-mode: normal" opacity="1"></path></g></svg></g></svg></g></svg></g></svg></g><g transform="matrix(1,0,0,1,0,5.592857142857127)"><svg viewBox="0 0 189.81428571428577 189.81428571428572" height="189.81428571428572" width="189.81428571428577"><g><svg xmlns="http://www.w3.org/2000/svg" xmlns:xlink="http://www.w3.org/1999/xlink" version="1.1" x="0" y="0" viewBox="25.700000000000003 25.7 48.60000000000001 48.599999999999994" enable-background="new 0 0 100 100" xml:space="preserve" height="189.81428571428572" width="189.81428571428577" class="icon-icon-0" data-fill-palette-color="accent" id="SvgjsSvg1317"><g fill="black"><g fill="black"><path fill="black" d="M69.7 73.9c-0.3 0-0.5-0.1-0.7-0.3l-3.9-3.9c-0.4-0.4-0.4-1 0-1.4s1-0.4 1.4 0l3.2 3.2 1.8-1.8-3.2-3.2c-0.4-0.4-0.4-1 0-1.4s1-0.4 1.4 0l3.9 3.9c0.4 0.4 0.4 1 0 1.4l-3.2 3.2C70.2 73.8 69.9 73.9 69.7 73.9z"></path></g><g fill="black"><path fill="black" d="M57.7 61.9c-0.3 0-0.5-0.1-0.7-0.3L38.4 43c-0.4-0.4-0.4-1 0-1.4s1-0.4 1.4 0l18.6 18.6c0.4 0.4 0.4 1 0 1.4C58.2 61.8 58 61.9 57.7 61.9z"></path></g><g fill="black"><path fill="black" d="M60.9 58.7c-0.3 0-0.5-0.1-0.7-0.3L41.6 39.8c-0.4-0.4-0.4-1 0-1.4s1-0.4 1.4 0L61.6 57c0.4 0.4 0.4 1 0 1.4C61.4 58.6 61.2 58.7 60.9 58.7z"></path></g><g fill="black"><path fill="black" d="M31 35.2c-0.3 0-0.5-0.1-0.7-0.3l-3.5-3.5c-0.2-0.2-0.3-0.4-0.3-0.7s0.1-0.5 0.3-0.7l3.2-3.2c0.4-0.4 1-0.4 1.4 0l3.5 3.5c0.4 0.4 0.4 1 0 1.4s-1 0.4-1.4 0l-2.8-2.8-1.8 1.8 2.8 2.8c0.4 0.4 0.4 1 0 1.4C31.5 35.1 31.2 35.2 31 35.2z"></path></g><g fill="black"><g fill="black"><path fill="black" d="M30.8 43.5L30.8 43.5c-0.3 0-0.5-0.1-0.7-0.3L26 39.1c-0.4-0.4-0.4-1 0-1.4L37.7 26c0.2-0.2 0.4-0.3 0.7-0.3l0 0c0.3 0 0.5 0.1 0.7 0.3l4.1 4.1c0.4 0.4 0.4 1 0 1.4L31.5 43.2C31.3 43.4 31 43.5 30.8 43.5zM28.1 38.4l2.6 2.6 10.3-10.3-2.6-2.6L28.1 38.4z"></path></g><g fill="black"><path fill="black" d="M32.3 50.1c-0.3 0-0.5-0.1-0.7-0.3l-4.1-4.1c-0.2-0.2-0.3-0.4-0.3-0.7s0.1-0.5 0.3-0.7l16.7-16.7c0.4-0.4 1-0.4 1.4 0l4.1 4.1c0.4 0.4 0.4 1 0 1.4L33 49.8C32.8 50 32.6 50.1 32.3 50.1zM29.7 45l2.6 2.6 15.3-15.3L45 29.7 29.7 45z"></path></g></g><g fill="black"><g fill="black"><path fill="black" d="M61.6 74.3L61.6 74.3c-0.3 0-0.5-0.1-0.7-0.3l-4.1-4.1c-0.4-0.4-0.4-1 0-1.4l11.7-11.7c0.2-0.2 0.4-0.3 0.7-0.3l0 0c0.3 0 0.5 0.1 0.7 0.3l4.1 4.1c0.4 0.4 0.4 1 0 1.4L62.3 74C62.1 74.2 61.8 74.3 61.6 74.3zM58.9 69.2l2.6 2.6 10.3-10.3-2.6-2.6L58.9 69.2z"></path></g><g fill="black"><path fill="black" d="M55 72.7c-0.3 0-0.5-0.1-0.7-0.3l-4.1-4.1c-0.4-0.4-0.4-1 0-1.4L67 50.2c0.2-0.2 0.4-0.3 0.7-0.3l0 0c0.3 0 0.5 0.1 0.7 0.3l4.1 4.1c0.4 0.4 0.4 1 0 1.4L55.7 72.4C55.5 72.6 55.3 72.7 55 72.7zM52.4 67.7l2.6 2.6L70.3 55l-2.6-2.6L52.4 67.7z"></path></g></g></g></svg></g></svg></g></svg></g><defs><mask></mask></defs></svg><rect width="395.52" height="144.62407396565192" fill="black" stroke="none" visibility="hidden"></rect></g></mask></svg><rect width="395.52" height="144.62407396565192" fill="black" stroke="none" visibility="hidden"></rect></g></mask><linearGradient x1="0" x2="1" y1="0.578" y2="0.595" id="9ec56829-c413-40be-b7f1-bfa8e5f5e06d"><stop stop-color="#6ee2f5" offset="0"></stop><stop stop-color="#6454f0" offset="1"></stop></linearGradient><rect width="395.52" height="144.62407396565192" fill="url(#9ec56829-c413-40be-b7f1-bfa8e5f5e06d)" mask="url(#c7236c8d-a2f0-4137-a522-70db01b34ac9)" data-fill-palette-color="accent"></rect></svg><rect width="395.52" height="144.62407396565192" fill="none" stroke="none" visibility="hidden"></rect></g></svg></g></svg>